<?xml version="1.0" standalone="no"?>
<!DOCTYPE svg PUBLIC "-//W3C//DTD SVG 20010904//EN"
 "http://www.w3.org/TR/2001/REC-SVG-20010904/DTD/svg10.dtd">
<svg version="1.0" xmlns="http://www.w3.org/2000/svg"
 width="483.000000pt" height="448.000000pt" viewBox="0 0 483.000000 448.000000"
 preserveAspectRatio="xMidYMid meet">

<g transform="translate(0.000000,448.000000) scale(0.100000,-0.100000)"
fill="current" stroke="current">
<path d="M901 3872 c-19 -9 -44 -30 -55 -45 l-21 -28 0 -1509 0 -1509 21 -28
c11 -15 36 -36 55 -45 32 -17 125 -18 1519 -18 1394 0 1487 1 1519 18 19 9 44
30 55 45 21 28 21 38 24 794 2 748 2 767 -18 807 -11 23 -33 49 -49 59 -40 24
-115 22 -156 -3 -67 -42 -65 -16 -65 -759 l0 -671 -1310 0 -1310 0 0 1310 0
1310 671 0 c743 0 717 -2 759 65 25 41 27 116 3 156 -10 16 -36 38 -58 49 -40
19 -64 20 -796 20 -698 0 -757 -1 -788 -18z"/>
<path d="M3235 3876 c-43 -20 -1672 -1655 -1680 -1686 -3 -14 -5 -175 -3 -357
l3 -333 38 -37 37 -38 333 -3 c182 -2 343 0 357 3 15 4 342 322 853 833 884
883 858 855 842 939 -6 33 -45 77 -318 350 -171 172 -325 319 -343 328 -39 18
-79 19 -119 1z"/>
</g>
</svg>
